[img]http://img824.imageshack.us/img824/4176/twgea.jpg[/img]

[b][color=black]Remady & Manu L - Single Ladies (feat. J-Son) [Singles] [2012]- Sebastian[Ub3r]

Format                           : MPEG-4
Format profile                   : Apple audio with iTunes info
Codec ID                         : M4A 
File size                        : 6.92 MiB
Duration                         : 3mn 45s
Overall bit rate                 : 258 Kbps
Track name                       : Single Ladies (Single Edit)
Performer                        : Remady & Manu L
Composer                         : Remady, B. Mühlethaler, J. Santos (J-Son) & T. Troelsen
Genre                            : Dance
Recorded date                    : 2012

Audio
ID                               : 1
Format                           : AAC
Format/Info                      : Advanced Audio Codec
Format profile                   : LC
Codec ID                         : 40
Duration                         : 3mn 45s
Bit rate mode                    : Variable
Bit rate                         : 256 Kbps
Maximum bit rate                 : 328 Kbps
Channel(s)                       : 2 channels
Channel positions                : Front: L R
Sampling rate                    : 44.1 KHz
Compression mode                 : Lossy
Stream size                      : 6.87 MiB (99%)
Language                         : English[/color][/b]

[color=green]****************************************************************************[/color]
[b][color=black]Remady & Manu L - Single Ladies (feat. J-Son) [Singles] [2012]- Sebastian[Ub3r]

Format                           : MPEG-4
Format profile                   : Apple audio with iTunes info
Codec ID                         : M4A 
File size                        : 10.1 MiB
Duration                         : 5mn 29s
Overall bit rate                 : 258 Kbps
Track name                       : Single Ladies (Extended Remix)
Performer                        : Remady & Manu L
Composer                         : Remady, B. Mühlethaler, J. Santos (J-Son) & T. Troelsen
Genre                            : Dance
Recorded date                    : 2012

Audio
ID                               : 1
Format                           : AAC
Format/Info                      : Advanced Audio Codec
Format profile                   : LC
Codec ID                         : 40
Duration                         : 5mn 29s
Bit rate mode                    : Variable
Bit rate                         : 256 Kbps
Maximum bit rate                 : 321 Kbps
Channel(s)                       : 2 channels
Channel positions                : Front: L R
Sampling rate                    : 44.1 KHz
Compression mode                 : Lossy
Stream size                      : 10.0 MiB (99%)
Language                         : English[/color][/b]
[color=green]****************************************************************************[/color]
[img]http://kastatic.com/i2/users/133df62bbf28e62494bb17fe11078f1a.gif[/img][img]http://kastatic.com/i2/users/133df62bbf28e62494bb17fe11078f1a.gif[/img]